<svg xmlns="http://www.w3.org/2000/svg" xmlns:xlink="http://www.w3.org/1999/xlink" width="1920" zoomAndPan="magnify" viewBox="0 0 1440 809.999993" height="1080" preserveAspectRatio="xMidYMid meet" version="1.0"><defs><clipPath id="bd700c27f9"><path d="M 331 103 L 1071 103 L 1071 743.890625 L 331 743.890625 Z M 331 103 " clip-rule="nonzero"/></clipPath></defs><rect x="-144" width="1728" fill="#ffffff" y="-80.999999" height="971.999992" fill-opacity="1"/><rect x="-144" width="1728" fill="#ffffff" y="-80.999999" height="971.999992" fill-opacity="1"/><path fill="#ff2273" d="M 990.363281 245.679688 L 989.84375 244.457031 L 987.59375 244.058594 C 978.628906 200.566406 943.429688 165.757812 897.886719 154.429688 C 888.234375 140.28125 876.003906 122.78125 871.882812 118.761719 C 868.144531 115.085938 858.894531 112.816406 846.921875 112.523438 C 846.097656 111.488281 845.367188 110.628906 844.871094 110.136719 C 839.917969 105.296875 815.699219 103.433594 793.117188 112.667969 C 770.53125 121.90625 764.183594 130.6875 762.503906 138.207031 C 762.261719 139.320312 762.136719 141.042969 762.089844 143.082031 C 757.351562 148.070312 754.394531 153.355469 753.128906 159.046875 C 751.453125 166.59375 753.355469 190.613281 754.714844 204.914062 L 526.847656 273.984375 L 525.347656 274.753906 C 517.75 270.890625 509.699219 267.722656 501.277344 265.320312 C 492.535156 251.097656 481.96875 234.371094 478.234375 230.332031 C 474.667969 226.476562 465.371094 223.769531 453.617188 222.898438 C 452.832031 221.820312 452.144531 220.921875 451.667969 220.402344 C 446.960938 215.328125 422.863281 212.285156 399.859375 220.402344 C 376.839844 228.53125 370.066406 236.992188 368.035156 244.417969 C 367.738281 245.519531 367.523438 247.230469 367.386719 249.265625 C 362.410156 254.015625 359.1875 259.152344 357.648438 264.773438 C 355.589844 272.335938 356.363281 297.019531 357.019531 311.28125 C 343.644531 328.9375 335.234375 350.066406 333.667969 372.9375 C 333.667969 372.9375 349.0625 626.46875 354.09375 664.539062 C 360.074219 709.800781 389.722656 738.6875 435.453125 741.335938 C 437.84375 741.476562 465.597656 741.171875 475.535156 737.421875 C 504.035156 726.652344 523.503906 701.054688 531.566406 663.964844 C 544.875 602.734375 573.429688 483.964844 582.332031 475.691406 C 591.007812 467.632812 648.523438 448.96875 686.574219 436.820312 L 700.382812 432.25 C 715.832031 427.285156 731.269531 422.035156 745.085938 417.40625 C 766.84375 410.121094 785.636719 403.789062 792.226562 402.460938 C 795.589844 401.789062 799.773438 400.941406 804.289062 400.941406 C 815.9375 400.941406 825.5625 406.816406 833.695312 418.925781 C 861.996094 461.101562 932.640625 559.179688 977.199219 559.179688 C 977.820312 559.179688 978.4375 559.15625 979.046875 559.117188 C 1036.199219 555.640625 1067.675781 527.730469 1067.675781 480.539062 C 1067.683594 427.691406 993.519531 253.085938 990.363281 245.679688 Z M 990.363281 245.679688 " fill-opacity="1" fill-rule="nonzero"/><g clip-path="url(#bd700c27f9)"><path fill="#060644" d="M 437.160156 743.855469 C 436.242188 743.855469 435.605469 743.84375 435.3125 743.824219 C 389.085938 741.144531 357.796875 711.632812 351.621094 664.867188 C 346.640625 627.148438 331.335938 375.625 331.179688 373.089844 C 332.710938 350.40625 340.765625 328.890625 354.488281 310.496094 C 353.710938 293.210938 353.234375 271.496094 355.246094 264.117188 C 356.816406 258.367188 360.082031 252.996094 364.972656 248.140625 C 365.128906 246.242188 365.34375 244.804688 365.628906 243.757812 C 368.507812 233.25 379.117188 225.082031 399.027344 218.050781 C 411.105469 213.789062 422.199219 212.894531 429.386719 212.894531 C 440.9375 212.894531 450.175781 215.121094 453.5 218.707031 C 453.878906 219.121094 454.378906 219.746094 454.949219 220.5 C 467.101562 221.539062 476.226562 224.484375 480.070312 228.640625 C 483.171875 231.992188 490.855469 243.617188 502.902344 263.191406 C 510.640625 265.457031 518.171875 268.402344 525.339844 271.960938 L 525.710938 271.765625 L 752.042969 203.121094 C 750.496094 186.324219 749.097656 165.730469 750.703125 158.503906 C 752.015625 152.59375 754.9375 147.207031 759.628906 142.074219 C 759.695312 140.175781 759.839844 138.730469 760.070312 137.671875 C 762.441406 127.019531 772.644531 118.347656 792.175781 110.359375 C 802.789062 106.019531 814.90625 103.625 826.292969 103.625 C 835.996094 103.625 843.59375 105.390625 846.617188 108.351562 C 847.015625 108.738281 847.542969 109.335938 848.140625 110.066406 C 855.792969 110.339844 868.199219 111.636719 873.636719 116.980469 C 877.011719 120.269531 885.675781 132.136719 899.414062 152.242188 C 944.921875 163.910156 980.121094 198.90625 989.679688 241.894531 L 991.609375 242.238281 L 992.660156 244.699219 C 995.828125 252.125 1070.183594 427.203125 1070.183594 480.53125 C 1070.183594 529.242188 1037.871094 558.03125 979.210938 561.601562 C 978.554688 561.644531 977.886719 561.664062 977.210938 561.664062 C 931.433594 561.664062 860.152344 462.8125 831.636719 420.308594 C 823.996094 408.953125 815.058594 403.429688 804.289062 403.429688 C 800.074219 403.429688 796.0625 404.230469 792.847656 404.878906 C 786.554688 406.140625 768.925781 412.046875 748.515625 418.886719 L 737.003906 422.75 C 725.589844 426.585938 713.378906 430.6875 701.152344 434.617188 L 687.367188 439.1875 C 659.050781 448.226562 592.804688 469.375 584.042969 477.515625 C 576.46875 484.550781 549.652344 592.546875 534.015625 664.492188 C 525.726562 702.628906 505.808594 728.652344 476.425781 739.753906 C 465.671875 743.8125 437.445312 743.855469 437.160156 743.855469 Z M 429.386719 217.882812 C 422.589844 217.882812 412.09375 218.730469 400.691406 222.753906 C 376.734375 231.210938 371.953125 239.542969 370.441406 245.074219 C 370.28125 245.679688 370.046875 246.921875 369.878906 249.433594 L 369.816406 250.402344 L 369.113281 251.070312 C 364.441406 255.53125 361.480469 260.226562 360.0625 265.433594 C 358.621094 270.722656 358.421875 287.394531 359.519531 311.167969 L 359.558594 312.066406 L 359.011719 312.785156 C 345.546875 330.5625 337.640625 351.421875 336.160156 373.109375 C 336.316406 375.324219 351.613281 626.667969 356.566406 664.21875 C 362.496094 709.082031 391.304688 736.285156 435.601562 738.847656 C 435.84375 738.863281 436.386719 738.871094 437.160156 738.871094 C 444.289062 738.871094 466.480469 738.183594 474.664062 735.089844 C 502.386719 724.621094 521.222656 699.839844 529.132812 663.4375 C 537.289062 625.929688 569.921875 483.828125 580.640625 473.867188 C 589.0625 466.046875 636.167969 450.300781 685.820312 434.445312 L 699.601562 429.878906 C 711.824219 425.953125 724.015625 421.851562 735.410156 418.023438 L 746.925781 414.15625 C 767.5 407.269531 785.261719 401.316406 791.734375 400.015625 C 795.300781 399.300781 799.578125 398.445312 804.285156 398.445312 C 816.839844 398.445312 827.132812 404.691406 835.761719 417.535156 C 863.847656 459.367188 933.828125 556.675781 977.207031 556.675781 C 977.777344 556.675781 978.335938 556.65625 978.890625 556.621094 C 1034.542969 553.238281 1065.1875 526.214844 1065.1875 480.53125 C 1065.1875 428.261719 991.359375 254.386719 988.078125 246.675781 L 985.492188 246.21875 L 985.152344 244.5625 C 976.457031 202.394531 941.964844 167.96875 897.277344 156.855469 L 896.359375 156.625 L 895.820312 155.839844 C 882.355469 136.101562 873.230469 123.570312 870.136719 120.546875 C 867.632812 118.085938 860.207031 115.347656 846.859375 115.019531 L 845.695312 114.992188 L 844.96875 114.085938 C 844.222656 113.148438 843.574219 112.363281 843.117188 111.917969 C 841.492188 110.328125 835.53125 108.617188 826.28125 108.617188 C 820.058594 108.617188 807.585938 109.445312 794.050781 114.980469 C 770.5625 124.585938 766.179688 133.148438 764.929688 138.75 C 764.800781 139.355469 764.632812 140.613281 764.578125 143.132812 L 764.558594 144.101562 L 763.890625 144.800781 C 759.449219 149.476562 756.726562 154.3125 755.558594 159.589844 C 754.375 164.882812 754.980469 181.320312 757.191406 204.679688 L 757.378906 206.710938 L 527.570312 276.375 L 525.351562 277.558594 L 524.21875 276.980469 C 516.714844 273.164062 508.765625 270.050781 500.597656 267.722656 L 499.660156 267.457031 L 499.15625 266.628906 C 487.332031 247.390625 479.246094 235.101562 476.40625 232.03125 C 473.382812 228.761719 464.578125 226.214844 453.433594 225.386719 L 452.28125 225.300781 L 451.601562 224.367188 C 450.886719 223.386719 450.269531 222.5625 449.828125 222.089844 C 447.945312 220.058594 440.132812 217.882812 429.386719 217.882812 Z M 429.386719 217.882812 " fill-opacity="1" fill-rule="nonzero"/></g><path fill="#060644" d="M 833.699219 418.921875 C 837.6875 424.859375 842.539062 431.9375 848.007812 439.65625 C 849.265625 441.433594 851.804688 437.476562 851.902344 436.410156 C 852.277344 432.203125 848.667969 428.445312 847.773438 424.515625 C 846.59375 419.339844 851.03125 415.527344 856.136719 417.910156 C 863.488281 421.320312 867.714844 429.183594 874.621094 433.207031 C 881.90625 437.449219 889.429688 436.265625 896.179688 431.445312 C 905.632812 424.683594 909.378906 413.949219 906.546875 402.660156 C 901.65625 383.144531 887.863281 369.496094 870.082031 360.816406 C 832.207031 342.332031 785.867188 342.324219 759.835938 379.464844 C 751.378906 391.527344 745.117188 404.9375 740.476562 418.945312 C 742.007812 418.429688 743.59375 417.898438 745.09375 417.398438 C 766.851562 410.109375 785.644531 403.777344 792.238281 402.453125 C 795.59375 401.78125 799.777344 400.933594 804.292969 400.933594 C 815.945312 400.9375 825.566406 406.8125 833.699219 418.921875 Z M 833.699219 418.921875 " fill-opacity="1" fill-rule="nonzero"/><path fill="#060644" d="M 1024.734375 524.738281 C 1005.445312 512.578125 951.621094 491.390625 954.394531 533.167969 C 954.746094 538.488281 941.980469 532.59375 939.875 531.894531 C 936.777344 530.863281 933.667969 529.863281 930.464844 529.222656 C 929.488281 529.03125 923.3125 529.304688 923.003906 529.019531 C 942.320312 546.824219 961.398438 559.171875 977.207031 559.171875 C 977.832031 559.171875 978.445312 559.152344 979.054688 559.113281 C 1005.488281 557.507812 1026.355469 550.609375 1041.234375 539.058594 C 1036.234375 533.527344 1030.785156 528.546875 1024.734375 524.738281 Z M 1024.734375 524.738281 " fill-opacity="1" fill-rule="nonzero"/><path fill="#060644" d="M 1027.554688 555.570312 L 986.898438 560.863281 L 1008.210938 521.292969 Z M 1027.554688 555.570312 " fill-opacity="1" fill-rule="nonzero"/><path fill="#060644" d="M 738.621094 209.796875 C 754.203125 220.8125 773.0625 227.554688 791.820312 230.15625 C 824.929688 234.75 852.515625 226.652344 875.667969 202.109375 C 888.238281 188.789062 900.898438 174.585938 907.695312 157.328125 C 904.476562 156.25 901.21875 155.257812 897.886719 154.433594 C 888.234375 140.285156 876.003906 122.785156 871.882812 118.761719 C 868.144531 115.085938 858.894531 112.820312 846.921875 112.527344 C 846.097656 111.492188 845.367188 110.628906 844.871094 110.136719 C 839.917969 105.300781 815.699219 103.433594 793.117188 112.671875 C 770.53125 121.90625 764.183594 130.691406 762.503906 138.207031 C 762.261719 139.320312 762.136719 141.046875 762.089844 143.085938 C 757.351562 148.074219 754.394531 153.355469 753.128906 159.050781 C 751.453125 166.59375 753.355469 190.617188 754.714844 204.917969 Z M 738.621094 209.796875 " fill-opacity="1" fill-rule="nonzero"/><path fill="#060644" d="M 488.78125 725.179688 C 468.148438 701.960938 445.65625 675.230469 419.0625 658.6875 C 411.996094 654.292969 404.570312 650.367188 397.722656 645.628906 C 390.210938 640.421875 384.453125 638.847656 380.34375 648.226562 C 378.59375 652.21875 375.265625 663.191406 369.398438 663.191406 C 363.839844 663.191406 362.792969 650.933594 360.640625 647.882812 C 357.566406 643.535156 354.855469 647.160156 352.792969 652.484375 C 353.277344 657.578125 353.71875 661.691406 354.09375 664.542969 C 360.074219 709.804688 389.722656 738.695312 435.453125 741.339844 C 437.84375 741.480469 466.40625 740.992188 476.617188 736.941406 C 482.058594 734.773438 487.164062 732.066406 491.921875 728.84375 C 490.863281 727.632812 489.84375 726.386719 488.78125 725.179688 Z M 488.78125 725.179688 " fill-opacity="1" fill-rule="nonzero"/><path fill="#060644" d="M 461.472656 742.628906 C 467.957031 741.660156 491.925781 737.390625 491.925781 737.390625 L 466.453125 719.933594 Z M 461.472656 742.628906 " fill-opacity="1" fill-rule="nonzero"/><path fill="#060644" d="M 335.300781 399.4375 C 336.046875 401.285156 337.035156 402.886719 338.410156 404.042969 C 344.605469 409.257812 347.265625 398.894531 349.695312 395.421875 C 350.582031 394.160156 352.445312 393.667969 353.617188 394.921875 C 362.511719 404.472656 357.253906 424.339844 372.558594 428.335938 C 394.011719 433.945312 408.101562 417.167969 414.542969 398.820312 C 424.554688 370.316406 429.527344 340.53125 443.347656 313.328125 C 455.695312 289.019531 472.558594 268.433594 491.617188 249.828125 C 485.867188 240.777344 480.636719 232.929688 478.234375 230.335938 C 474.667969 226.480469 465.371094 223.769531 453.617188 222.898438 C 452.832031 221.820312 452.144531 220.921875 451.667969 220.402344 C 446.960938 215.328125 422.863281 212.285156 399.859375 220.402344 C 376.839844 228.53125 370.066406 236.992188 368.035156 244.417969 C 367.738281 245.519531 367.523438 247.230469 367.386719 249.265625 C 362.410156 254.015625 359.1875 259.152344 357.648438 264.773438 C 355.589844 272.335938 356.363281 297.019531 357.019531 311.28125 C 343.644531 328.9375 335.234375 350.066406 333.667969 372.9375 C 333.671875 372.9375 334.285156 383.023438 335.300781 399.4375 Z M 335.300781 399.4375 " fill-opacity="1" fill-rule="nonzero"/><path fill="#060644" d="M 800.953125 169.867188 C 800.953125 169.867188 797.261719 136.636719 798.949219 129.011719 C 800.648438 121.378906 807.09375 112.464844 830.027344 103.085938 C 852.953125 93.710938 877.546875 95.601562 882.5625 100.515625 C 887.585938 105.425781 910.601562 140.078125 910.601562 140.078125 Z M 800.953125 169.867188 " fill-opacity="1" fill-rule="nonzero"/><path fill="#ffd33b" d="M 794.652344 207.585938 C 794.652344 207.585938 789.515625 161.332031 791.871094 150.710938 C 794.226562 140.089844 803.199219 127.679688 835.117188 114.628906 C 867.042969 101.570312 901.273438 104.207031 908.253906 111.050781 C 915.246094 117.890625 947.289062 166.121094 947.289062 166.121094 Z M 794.652344 207.585938 " fill-opacity="1" fill-rule="nonzero"/><path fill="#060644" d="M 792.496094 210.757812 L 792.175781 207.863281 C 791.960938 205.957031 787.015625 161.074219 789.433594 150.171875 C 792.683594 135.496094 806.902344 123.46875 834.171875 112.316406 C 854.261719 104.105469 872.757812 102.878906 881.996094 102.878906 C 895.445312 102.878906 905.917969 105.265625 909.996094 109.269531 C 917.09375 116.210938 948.054688 162.761719 949.363281 164.738281 L 951.273438 167.617188 Z M 881.996094 107.867188 C 873.128906 107.867188 855.359375 109.042969 836.0625 116.9375 C 802.398438 130.699219 796.109375 143.113281 794.304688 151.25 C 792.574219 159.0625 795.296875 189.925781 796.816406 204.414062 L 943.292969 164.621094 C 931.777344 147.367188 911.59375 117.808594 906.507812 112.832031 C 903.984375 110.359375 895.429688 107.867188 881.996094 107.867188 Z M 881.996094 107.867188 " fill-opacity="1" fill-rule="nonzero"/><path fill="#060644" d="M 398.484375 277.738281 C 398.484375 277.738281 396.417969 244.371094 398.484375 236.835938 C 400.546875 229.296875 407.421875 220.707031 430.792969 212.457031 C 454.148438 204.214844 478.609375 207.304688 483.382812 212.457031 C 488.160156 217.613281 509.460938 253.34375 509.460938 253.34375 Z M 398.484375 277.738281 " fill-opacity="1" fill-rule="nonzero"/><path fill="#ffd33b" d="M 390.347656 315.105469 C 390.347656 315.105469 387.476562 268.65625 390.347656 258.160156 C 393.21875 247.667969 402.789062 235.714844 435.304688 224.234375 C 467.832031 212.757812 501.890625 217.0625 508.523438 224.234375 C 515.175781 231.410156 544.832031 281.152344 544.832031 281.152344 Z M 390.347656 315.105469 " fill-opacity="1" fill-rule="nonzero"/><path fill="#060644" d="M 388.042969 318.164062 L 387.859375 315.257812 C 387.746094 313.34375 385 268.273438 387.945312 257.503906 C 391.910156 243.007812 406.695312 231.6875 434.484375 221.878906 C 451.410156 215.90625 466.972656 214.65625 477.039062 214.65625 C 492.851562 214.65625 505.925781 217.75 510.363281 222.539062 C 517.113281 229.824219 545.761719 277.832031 546.976562 279.875 L 548.746094 282.84375 Z M 477.039062 219.644531 C 467.355469 219.644531 452.402344 220.847656 436.136719 226.585938 C 401.839844 238.691406 394.957031 250.78125 392.753906 258.820312 C 390.644531 266.539062 391.855469 297.5 392.664062 312.039062 L 540.910156 279.457031 C 530.253906 261.664062 511.535156 231.148438 506.699219 225.929688 C 503.808594 222.804688 492.695312 219.644531 477.039062 219.644531 Z M 477.039062 219.644531 " fill-opacity="1" fill-rule="nonzero"/><path fill="#ffd33b" d="M 363.300781 370.222656 C 363.300781 370.222656 381.652344 623.820312 386.808594 662.847656 C 391.960938 701.875 416.261719 734.28125 467.074219 737.222656 C 517.882812 740.171875 551.023438 711.453125 562.070312 660.636719 C 573.113281 609.828125 604.042969 478.75 614.347656 469.175781 C 624.660156 459.605469 693.886719 438.246094 735.121094 424.996094 C 776.363281 411.738281 817.59375 397.011719 828.640625 394.800781 C 839.691406 392.59375 857.550781 389.15625 873.292969 412.597656 C 889.027344 436.039062 970.769531 556.738281 1018.636719 553.828125 C 1066.5 550.914062 1106.269531 530.296875 1106.269531 476.539062 C 1106.269531 422.785156 1027.972656 239.09375 1027.972656 239.09375 L 796.054688 197.808594 L 560.847656 269.050781 Z M 363.300781 370.222656 " fill-opacity="1" fill-rule="nonzero"/><path fill="#060644" d="M 474.105469 738.804688 C 474.101562 738.804688 474.101562 738.804688 474.097656 738.804688 C 471.75 738.804688 469.359375 739.289062 466.925781 739.148438 C 420.503906 736.460938 390.402344 708.839844 384.335938 662.894531 C 379.234375 624.238281 361 372.800781 360.816406 370.261719 L 559.714844 266.742188 L 795.90625 195.207031 L 1029.742188 236.851562 L 1030.273438 238.101562 C 1033.480469 245.621094 1108.765625 422.890625 1108.765625 476.539062 C 1108.765625 524.453125 1076.8125 552.78125 1018.792969 556.3125 C 1018.175781 556.351562 1017.550781 556.375 1016.917969 556.375 C 971.679688 556.375 899.964844 456.804688 871.226562 413.984375 C 862.96875 401.691406 853.203125 395.714844 841.375 395.714844 C 836.789062 395.714844 832.539062 396.566406 829.132812 397.246094 C 822.4375 398.582031 803.367188 404.972656 781.277344 412.375 C 767.25 417.070312 751.574219 422.324219 735.894531 427.367188 L 721.875 431.855469 C 683.238281 444.1875 624.851562 462.828125 616.050781 471.007812 C 607.007812 479.402344 578.019531 598.445312 564.503906 660.609375 C 553.46875 711.394531 521.363281 738.804688 474.105469 738.804688 Z M 365.90625 371.6875 C 367.503906 393.644531 384.40625 625.652344 389.285156 662.523438 C 395.007812 705.875 423.414062 732.191406 467.222656 734.738281 C 515.757812 737.5625 548.621094 710.800781 559.636719 660.113281 C 560.023438 658.3125 599.3125 479.746094 612.65625 467.359375 C 621.554688 459.09375 666.699219 444.242188 720.355469 427.105469 L 734.359375 422.621094 C 750.023438 417.582031 765.691406 412.34375 779.691406 407.648438 C 802.855469 399.890625 821.152344 393.757812 828.15625 392.359375 C 831.585938 391.671875 836.289062 390.730469 841.371094 390.730469 C 854.992188 390.730469 866.109375 397.425781 875.363281 411.210938 C 903.652344 453.359375 974.074219 551.394531 1016.917969 551.394531 C 1017.445312 551.394531 1017.96875 551.371094 1018.488281 551.34375 C 1057.394531 548.980469 1103.777344 534.074219 1103.777344 476.542969 C 1103.777344 426.203125 1033.058594 257.527344 1026.210938 241.316406 L 796.207031 200.371094 L 561.570312 271.441406 Z M 365.90625 371.6875 " fill-opacity="1" fill-rule="nonzero"/><path fill="#ffd33b" d="M 1029.742188 258.632812 C 1029.742188 323.328125 973.335938 375.777344 903.742188 375.777344 C 834.164062 375.777344 777.757812 323.332031 777.757812 258.632812 C 777.757812 193.9375 834.164062 141.492188 903.742188 141.492188 C 973.339844 141.492188 1029.742188 193.9375 1029.742188 258.632812 Z M 1029.742188 258.632812 " fill-opacity="1" fill-rule="nonzero"/><path fill="#060644" d="M 903.746094 378.273438 C 832.902344 378.273438 775.273438 324.601562 775.273438 258.632812 C 775.273438 192.667969 832.90625 138.996094 903.746094 138.996094 C 974.601562 138.996094 1032.234375 192.664062 1032.234375 258.632812 C 1032.234375 324.601562 974.59375 378.273438 903.746094 378.273438 Z M 903.746094 143.984375 C 835.652344 143.984375 780.257812 195.414062 780.257812 258.632812 C 780.257812 321.851562 835.652344 373.28125 903.746094 373.28125 C 971.84375 373.28125 1027.246094 321.851562 1027.246094 258.632812 C 1027.246094 195.417969 971.84375 143.984375 903.746094 143.984375 Z M 903.746094 143.984375 " fill-opacity="1" fill-rule="nonzero"/><path fill="#ffd33b" d="M 626.800781 375.175781 C 626.800781 442.828125 567.820312 497.675781 495.042969 497.675781 C 422.285156 497.675781 363.296875 442.828125 363.296875 375.175781 C 363.296875 307.519531 422.285156 252.675781 495.042969 252.675781 C 567.824219 252.675781 626.800781 307.519531 626.800781 375.175781 Z M 626.800781 375.175781 " fill-opacity="1" fill-rule="nonzero"/><path fill="#060644" d="M 495.050781 500.167969 C 421.027344 500.167969 360.808594 444.097656 360.808594 375.175781 C 360.808594 306.253906 421.03125 250.183594 495.050781 250.183594 C 569.078125 250.183594 629.296875 306.253906 629.296875 375.175781 C 629.296875 444.097656 569.070312 500.167969 495.050781 500.167969 Z M 495.050781 255.167969 C 423.777344 255.167969 365.800781 309.003906 365.800781 375.175781 C 365.800781 441.34375 423.777344 495.179688 495.050781 495.179688 C 566.324219 495.179688 624.308594 441.34375 624.308594 375.175781 C 624.308594 309.003906 566.324219 255.167969 495.050781 255.167969 Z M 495.050781 255.167969 " fill-opacity="1" fill-rule="nonzero"/><path fill="#ffffff" d="M 500.894531 466.648438 L 500.890625 466.648438 C 495.4375 466.648438 490.617188 463.3125 488.886719 458.136719 L 473.605469 415.199219 L 420.933594 430.378906 C 414.367188 432.25 407.160156 428.269531 405.277344 421.734375 L 392.183594 376.179688 C 391.25 372.929688 391.636719 369.519531 393.273438 366.5625 C 394.910156 363.605469 397.597656 361.464844 400.847656 360.53125 L 449.210938 346.625 L 434.484375 305.179688 C 432.265625 298.511719 435.859375 291.335938 442.472656 289.132812 L 487.453125 274.152344 C 493.972656 271.984375 501.304688 275.691406 503.453125 282.160156 L 519.207031 326.5 L 576.558594 310.011719 C 583.109375 308.117188 590.328125 312.140625 592.207031 318.671875 L 605.304688 364.230469 C 606.238281 367.480469 605.851562 370.898438 604.214844 373.855469 C 602.578125 376.808594 599.886719 378.953125 596.640625 379.886719 L 543.605469 395.136719 L 557.863281 435.257812 C 558.941406 438.515625 558.703125 441.945312 557.183594 444.960938 C 555.671875 447.984375 553.074219 450.234375 549.863281 451.296875 L 504.890625 466.136719 C 503.59375 466.574219 502.25 466.648438 500.894531 466.648438 Z M 476.734375 409.183594 L 493.605469 456.675781 C 494.667969 459.855469 497.589844 461.984375 500.890625 461.984375 L 500.894531 461.984375 C 501.710938 461.984375 502.527344 461.835938 503.3125 461.566406 L 548.292969 446.574219 C 550.238281 445.933594 551.8125 444.5625 552.726562 442.734375 C 553.648438 440.902344 553.792969 438.824219 553.148438 436.878906 L 537.132812 391.808594 L 595.265625 375.089844 C 597.234375 374.527344 598.859375 373.226562 599.851562 371.4375 C 600.84375 369.644531 601.078125 367.574219 600.511719 365.605469 L 587.414062 320.046875 C 586.28125 316.09375 581.945312 313.664062 577.933594 314.800781 L 516.078125 332.585938 L 498.738281 283.78125 C 497.414062 279.800781 492.980469 277.554688 489.03125 278.882812 L 444.054688 293.859375 C 440.046875 295.195312 437.871094 299.542969 439.203125 303.558594 L 455.695312 349.953125 L 402.230469 365.324219 C 400.261719 365.890625 398.636719 367.1875 397.644531 368.976562 C 396.652344 370.769531 396.417969 372.839844 396.984375 374.808594 L 410.078125 420.371094 C 411.210938 424.320312 415.566406 426.761719 419.5625 425.617188 Z M 476.734375 409.183594 " fill-opacity="1" fill-rule="nonzero"/><path fill="#ffffff" d="M 907.214844 345.039062 C 901.757812 345.039062 896.933594 341.558594 895.210938 336.378906 L 879.929688 293.375 L 827.261719 308.523438 C 820.679688 310.417969 813.480469 306.386719 811.601562 299.863281 L 798.503906 254.300781 C 796.582031 247.59375 800.472656 240.570312 807.167969 238.644531 L 855.535156 224.738281 L 840.808594 183.292969 C 838.597656 176.621094 842.1875 169.441406 848.796875 167.238281 L 893.769531 152.261719 C 900.3125 150.085938 907.632812 153.808594 909.773438 160.277344 L 925.53125 204.609375 L 982.882812 188.121094 C 989.449219 186.238281 996.652344 190.257812 998.53125 196.785156 L 1011.628906 242.339844 C 1013.558594 249.046875 1009.671875 256.070312 1002.972656 258 L 949.933594 273.246094 L 964.191406 313.367188 C 966.414062 320.035156 962.816406 327.210938 956.203125 329.414062 L 911.226562 344.390625 C 909.921875 344.820312 908.574219 345.039062 907.214844 345.039062 Z M 883.058594 287.285156 L 899.925781 334.757812 C 901.253906 338.738281 905.679688 340.96875 909.640625 339.652344 L 954.613281 324.675781 C 958.625 323.34375 960.804688 318.996094 959.46875 314.984375 L 943.445312 269.917969 L 1001.585938 253.203125 C 1005.644531 252.035156 1007.996094 247.78125 1006.832031 243.71875 L 993.734375 198.160156 C 992.59375 194.203125 988.25 191.765625 984.253906 192.914062 L 922.402344 210.699219 L 905.058594 161.894531 C 903.738281 157.921875 899.324219 155.664062 895.347656 156.996094 L 850.378906 171.972656 C 846.375 173.304688 844.195312 177.65625 845.527344 181.675781 L 862.015625 228.066406 L 808.550781 243.4375 C 804.492188 244.605469 802.132812 248.859375 803.296875 252.925781 L 816.398438 298.484375 C 817.535156 302.4375 821.890625 304.878906 825.890625 303.730469 Z M 883.058594 287.285156 " fill-opacity="1" fill-rule="nonzero"/><path fill="#060644" d="M 870.089844 264.316406 C 870.089844 265.144531 870.050781 265.96875 869.96875 266.789062 C 869.890625 267.609375 869.769531 268.425781 869.605469 269.238281 C 869.445312 270.046875 869.246094 270.847656 869.003906 271.636719 C 868.765625 272.429688 868.488281 273.207031 868.171875 273.96875 C 867.855469 274.730469 867.503906 275.476562 867.113281 276.207031 C 866.722656 276.933594 866.300781 277.640625 865.839844 278.328125 C 865.382812 279.015625 864.890625 279.679688 864.367188 280.316406 C 863.84375 280.953125 863.289062 281.566406 862.703125 282.152344 C 862.121094 282.734375 861.507812 283.289062 860.871094 283.8125 C 860.230469 284.335938 859.570312 284.828125 858.882812 285.285156 C 858.195312 285.746094 857.488281 286.167969 856.761719 286.558594 C 856.03125 286.949219 855.285156 287.300781 854.523438 287.617188 C 853.757812 287.933594 852.984375 288.210938 852.191406 288.453125 C 851.402344 288.691406 850.601562 288.890625 849.792969 289.050781 C 848.980469 289.214844 848.164062 289.335938 847.34375 289.414062 C 846.519531 289.496094 845.699219 289.539062 844.871094 289.539062 C 844.046875 289.539062 843.222656 289.496094 842.398438 289.414062 C 841.578125 289.335938 840.761719 289.214844 839.949219 289.050781 C 839.140625 288.890625 838.339844 288.691406 837.550781 288.453125 C 836.761719 288.210938 835.984375 287.933594 835.21875 287.617188 C 834.457031 287.300781 833.710938 286.949219 832.984375 286.558594 C 832.253906 286.167969 831.546875 285.746094 830.859375 285.285156 C 830.171875 284.828125 829.511719 284.335938 828.871094 283.8125 C 828.234375 283.289062 827.621094 282.734375 827.039062 282.152344 C 826.453125 281.566406 825.898438 280.953125 825.375 280.316406 C 824.851562 279.679688 824.359375 279.015625 823.902344 278.328125 C 823.441406 277.640625 823.019531 276.933594 822.628906 276.207031 C 822.238281 275.476562 821.886719 274.730469 821.570312 273.96875 C 821.253906 273.207031 820.976562 272.429688 820.738281 271.636719 C 820.496094 270.847656 820.296875 270.046875 820.136719 269.238281 C 819.976562 268.425781 819.855469 267.609375 819.773438 266.789062 C 819.691406 265.96875 819.652344 265.144531 819.652344 264.316406 C 819.652344 263.492188 819.691406 262.667969 819.773438 261.84375 C 819.855469 261.023438 819.976562 260.207031 820.136719 259.398438 C 820.296875 258.585938 820.496094 257.785156 820.738281 256.996094 C 820.976562 256.207031 821.253906 255.429688 821.570312 254.664062 C 821.886719 253.902344 822.238281 253.15625 822.628906 252.429688 C 823.019531 251.699219 823.441406 250.992188 823.902344 250.304688 C 824.359375 249.617188 824.851562 248.957031 825.375 248.316406 C 825.898438 247.679688 826.453125 247.066406 827.039062 246.484375 C 827.621094 245.898438 828.234375 245.34375 828.871094 244.820312 C 829.511719 244.296875 830.171875 243.804688 830.859375 243.347656 C 831.546875 242.886719 832.253906 242.464844 832.984375 242.074219 C 833.710938 241.6875 834.457031 241.332031 835.21875 241.015625 C 835.984375 240.699219 836.761719 240.421875 837.550781 240.183594 C 838.339844 239.941406 839.140625 239.742188 839.949219 239.582031 C 840.761719 239.421875 841.578125 239.300781 842.398438 239.21875 C 843.222656 239.136719 844.046875 239.097656 844.871094 239.097656 C 845.699219 239.097656 846.519531 239.136719 847.34375 239.21875 C 848.164062 239.300781 848.980469 239.421875 849.792969 239.582031 C 850.601562 239.742188 851.402344 239.941406 852.191406 240.183594 C 852.984375 240.421875 853.757812 240.699219 854.523438 241.015625 C 855.285156 241.332031 856.03125 241.683594 856.761719 242.074219 C 857.488281 242.464844 858.195312 242.886719 858.882812 243.347656 C 859.570312 243.804688 860.230469 244.296875 860.871094 244.820312 C 861.507812 245.34375 862.121094 245.898438 862.703125 246.484375 C 863.289062 247.066406 863.84375 247.679688 864.367188 248.316406 C 864.890625 248.957031 865.382812 249.617188 865.839844 250.304688 C 866.300781 250.992188 866.722656 251.699219 867.113281 252.429688 C 867.503906 253.15625 867.855469 253.902344 868.171875 254.664062 C 868.488281 255.429688 868.765625 256.207031 869.003906 256.996094 C 869.246094 257.785156 869.445312 258.585938 869.605469 259.398438 C 869.769531 260.207031 869.890625 261.023438 869.96875 261.84375 C 870.050781 262.667969 870.089844 263.492188 870.089844 264.316406 Z M 870.089844 264.316406 " fill-opacity="1" fill-rule="nonzero"/><path fill="#060644" d="M 844.871094 292.035156 C 829.589844 292.035156 817.160156 279.601562 817.160156 264.320312 C 817.160156 249.035156 829.589844 236.597656 844.871094 236.597656 C 860.144531 236.597656 872.582031 249.035156 872.582031 264.320312 C 872.582031 279.601562 860.144531 292.035156 844.871094 292.035156 Z M 844.871094 241.585938 C 832.335938 241.585938 822.144531 251.785156 822.144531 264.316406 C 822.144531 276.851562 832.339844 287.046875 844.871094 287.046875 C 857.402344 287.046875 867.59375 276.851562 867.59375 264.316406 C 867.59375 251.785156 857.402344 241.585938 844.871094 241.585938 Z M 844.871094 241.585938 " fill-opacity="1" fill-rule="nonzero"/><path fill="#060644" d="M 910.445312 194.8125 C 910.445312 195.628906 910.402344 196.445312 910.324219 197.257812 C 910.242188 198.070312 910.125 198.875 909.964844 199.675781 C 909.804688 200.476562 909.605469 201.269531 909.371094 202.050781 C 909.132812 202.832031 908.859375 203.601562 908.546875 204.355469 C 908.234375 205.109375 907.882812 205.847656 907.5 206.566406 C 907.113281 207.289062 906.695312 207.988281 906.242188 208.667969 C 905.785156 209.34375 905.300781 210 904.78125 210.632812 C 904.265625 211.261719 903.71875 211.867188 903.140625 212.445312 C 902.5625 213.023438 901.957031 213.570312 901.328125 214.089844 C 900.695312 214.605469 900.039062 215.09375 899.359375 215.546875 C 898.679688 216 897.980469 216.417969 897.261719 216.804688 C 896.542969 217.191406 895.804688 217.539062 895.050781 217.851562 C 894.292969 218.164062 893.527344 218.4375 892.746094 218.675781 C 891.964844 218.914062 891.171875 219.109375 890.371094 219.269531 C 889.570312 219.429688 888.761719 219.550781 887.949219 219.628906 C 887.136719 219.710938 886.324219 219.75 885.507812 219.75 C 884.691406 219.75 883.875 219.710938 883.0625 219.628906 C 882.25 219.550781 881.441406 219.429688 880.640625 219.269531 C 879.839844 219.109375 879.050781 218.914062 878.265625 218.675781 C 877.484375 218.4375 876.71875 218.164062 875.964844 217.851562 C 875.207031 217.539062 874.472656 217.191406 873.75 216.804688 C 873.03125 216.417969 872.332031 216 871.652344 215.546875 C 870.972656 215.09375 870.316406 214.605469 869.6875 214.089844 C 869.054688 213.570312 868.449219 213.023438 867.875 212.445312 C 867.296875 211.867188 866.746094 211.261719 866.230469 210.632812 C 865.710938 210 865.226562 209.34375 864.773438 208.667969 C 864.316406 207.988281 863.898438 207.289062 863.515625 206.566406 C 863.128906 205.847656 862.78125 205.109375 862.46875 204.355469 C 862.15625 203.601562 861.878906 202.832031 861.644531 202.050781 C 861.40625 201.269531 861.207031 200.476562 861.046875 199.675781 C 860.890625 198.875 860.769531 198.070312 860.6875 197.257812 C 860.609375 196.445312 860.570312 195.628906 860.570312 194.8125 C 860.570312 193.996094 860.609375 193.179688 860.6875 192.367188 C 860.769531 191.554688 860.890625 190.75 861.046875 189.945312 C 861.207031 189.144531 861.40625 188.355469 861.644531 187.574219 C 861.878906 186.792969 862.15625 186.023438 862.46875 185.269531 C 862.78125 184.515625 863.128906 183.777344 863.515625 183.058594 C 863.898438 182.335938 864.316406 181.636719 864.773438 180.957031 C 865.226562 180.277344 865.710938 179.625 866.230469 178.992188 C 866.746094 178.359375 867.296875 177.757812 867.875 177.179688 C 868.449219 176.601562 869.054688 176.054688 869.6875 175.535156 C 870.316406 175.015625 870.972656 174.53125 871.652344 174.078125 C 872.332031 173.625 873.03125 173.203125 873.75 172.820312 C 874.472656 172.433594 875.207031 172.085938 875.964844 171.773438 C 876.71875 171.460938 877.484375 171.1875 878.265625 170.949219 C 879.050781 170.710938 879.839844 170.511719 880.640625 170.355469 C 881.441406 170.195312 882.25 170.074219 883.0625 169.996094 C 883.875 169.914062 884.691406 169.875 885.507812 169.875 C 886.324219 169.875 887.136719 169.914062 887.949219 169.996094 C 888.761719 170.074219 889.570312 170.195312 890.371094 170.355469 C 891.171875 170.511719 891.964844 170.710938 892.746094 170.949219 C 893.527344 171.1875 894.292969 171.460938 895.050781 171.773438 C 895.804688 172.085938 896.542969 172.433594 897.261719 172.820312 C 897.980469 173.203125 898.679688 173.625 899.359375 174.078125 C 900.039062 174.53125 900.695312 175.015625 901.328125 175.535156 C 901.957031 176.054688 902.5625 176.601562 903.140625 177.179688 C 903.71875 177.757812 904.265625 178.359375 904.78125 178.992188 C 905.300781 179.625 905.785156 180.277344 906.242188 180.957031 C 906.695312 181.636719 907.113281 182.335938 907.5 183.058594 C 907.882812 183.777344 908.234375 184.515625 908.546875 185.269531 C 908.859375 186.023438 909.132812 186.792969 909.371094 187.574219 C 909.605469 188.355469 909.804688 189.144531 909.964844 189.945312 C 910.125 190.75 910.242188 191.554688 910.324219 192.367188 C 910.402344 193.179688 910.445312 193.996094 910.445312 194.8125 Z M 910.445312 194.8125 " fill-opacity="1" fill-rule="nonzero"/><path fill="#060644" d="M 885.503906 222.242188 C 870.375 222.242188 858.070312 209.9375 858.070312 194.8125 C 858.070312 179.683594 870.375 167.375 885.503906 167.375 C 900.628906 167.375 912.9375 179.683594 912.9375 194.8125 C 912.9375 209.9375 900.628906 222.242188 885.503906 222.242188 Z M 885.503906 172.363281 C 873.132812 172.363281 863.058594 182.433594 863.058594 194.8125 C 863.058594 207.1875 873.132812 217.253906 885.503906 217.253906 C 897.878906 217.253906 907.949219 207.1875 907.949219 194.8125 C 907.949219 182.4375 897.878906 172.363281 885.503906 172.363281 Z M 885.503906 172.363281 " fill-opacity="1" fill-rule="nonzero"/><path fill="#060644" d="M 991.992188 230.460938 C 991.992188 244.386719 980.703125 255.679688 966.765625 255.679688 C 952.84375 255.679688 941.550781 244.386719 941.550781 230.460938 C 941.550781 216.527344 952.84375 205.230469 966.765625 205.230469 C 980.703125 205.230469 991.992188 216.527344 991.992188 230.460938 Z M 991.992188 230.460938 " fill-opacity="1" fill-rule="nonzero"/><path fill="#060644" d="M 966.765625 258.171875 C 951.488281 258.171875 939.058594 245.738281 939.058594 230.460938 C 939.058594 215.175781 951.488281 202.738281 966.765625 202.738281 C 982.046875 202.738281 994.484375 215.175781 994.484375 230.460938 C 994.484375 245.742188 982.046875 258.171875 966.765625 258.171875 Z M 966.765625 207.726562 C 954.230469 207.726562 944.046875 217.921875 944.046875 230.460938 C 944.046875 242.988281 954.234375 253.183594 966.765625 253.183594 C 979.296875 253.183594 989.496094 242.988281 989.496094 230.460938 C 989.496094 217.921875 979.296875 207.726562 966.765625 207.726562 Z M 966.765625 207.726562 " fill-opacity="1" fill-rule="nonzero"/><path fill="#ff2273" d="M 962.359375 252.496094 C 962.105469 252.496094 961.847656 252.457031 961.601562 252.378906 C 960.875 252.144531 960.300781 251.597656 960.027344 250.886719 L 956.042969 240.382812 L 947.222656 233.425781 C 946.621094 232.957031 946.28125 232.238281 946.273438 231.476562 C 946.265625 230.71875 946.617188 229.996094 947.207031 229.523438 L 955.96875 222.488281 L 959.863281 211.945312 C 960.125 211.234375 960.699219 210.679688 961.421875 210.441406 C 962.136719 210.199219 962.933594 210.308594 963.570312 210.726562 L 972.960938 216.886719 L 984.191406 217.328125 C 984.949219 217.355469 985.65625 217.730469 986.101562 218.339844 C 986.550781 218.957031 986.695312 219.738281 986.496094 220.472656 L 983.546875 231.3125 L 986.597656 242.128906 C 986.800781 242.859375 986.667969 243.644531 986.222656 244.261719 C 985.777344 244.878906 985.074219 245.261719 984.320312 245.296875 L 973.085938 245.839844 L 963.742188 252.082031 C 963.328125 252.355469 962.84375 252.496094 962.359375 252.496094 Z M 952.773438 231.449219 L 959.675781 236.894531 C 960.03125 237.171875 960.304688 237.542969 960.46875 237.96875 L 963.585938 246.191406 L 970.894531 241.308594 C 971.265625 241.054688 971.707031 240.910156 972.15625 240.886719 L 980.945312 240.464844 L 978.558594 232.003906 C 978.433594 231.570312 978.433594 231.109375 978.550781 230.671875 L 980.859375 222.1875 L 972.074219 221.84375 C 971.621094 221.828125 971.183594 221.683594 970.804688 221.4375 L 963.453125 216.617188 L 960.40625 224.867188 C 960.246094 225.289062 959.984375 225.660156 959.632812 225.945312 Z M 952.773438 231.449219 " fill-opacity="1" fill-rule="nonzero"/><path fill="#060644" d="M 947.691406 298.179688 C 947.691406 298.996094 947.648438 299.8125 947.570312 300.625 C 947.488281 301.4375 947.371094 302.242188 947.210938 303.042969 C 947.050781 303.84375 946.851562 304.636719 946.617188 305.417969 C 946.378906 306.199219 946.105469 306.96875 945.792969 307.722656 C 945.480469 308.476562 945.128906 309.214844 944.746094 309.933594 C 944.359375 310.65625 943.941406 311.355469 943.488281 312.035156 C 943.03125 312.714844 942.546875 313.367188 942.027344 314 C 941.511719 314.632812 940.960938 315.234375 940.386719 315.8125 C 939.808594 316.390625 939.203125 316.9375 938.570312 317.457031 C 937.941406 317.976562 937.285156 318.460938 936.605469 318.914062 C 935.925781 319.367188 935.226562 319.789062 934.507812 320.171875 C 933.785156 320.558594 933.050781 320.90625 932.292969 321.21875 C 931.539062 321.53125 930.773438 321.808594 929.992188 322.042969 C 929.207031 322.28125 928.417969 322.480469 927.617188 322.640625 C 926.816406 322.796875 926.007812 322.917969 925.195312 322.996094 C 924.382812 323.078125 923.566406 323.117188 922.75 323.117188 C 921.933594 323.117188 921.121094 323.078125 920.304688 322.996094 C 919.492188 322.917969 918.6875 322.796875 917.886719 322.640625 C 917.085938 322.480469 916.292969 322.28125 915.511719 322.042969 C 914.730469 321.808594 913.960938 321.53125 913.207031 321.21875 C 912.453125 320.90625 911.714844 320.558594 910.996094 320.171875 C 910.273438 319.789062 909.574219 319.367188 908.894531 318.914062 C 908.214844 318.460938 907.5625 317.976562 906.929688 317.457031 C 906.296875 316.9375 905.695312 316.390625 905.117188 315.8125 C 904.539062 315.234375 903.992188 314.632812 903.472656 314 C 902.953125 313.367188 902.46875 312.714844 902.015625 312.035156 C 901.5625 311.355469 901.140625 310.65625 900.757812 309.933594 C 900.371094 309.214844 900.023438 308.476562 899.710938 307.722656 C 899.398438 306.96875 899.125 306.199219 898.886719 305.417969 C 898.648438 304.636719 898.449219 303.84375 898.292969 303.042969 C 898.132812 302.242188 898.011719 301.4375 897.933594 300.625 C 897.851562 299.8125 897.8125 298.996094 897.8125 298.179688 C 897.8125 297.363281 897.851562 296.546875 897.933594 295.734375 C 898.011719 294.921875 898.132812 294.113281 898.292969 293.3125 C 898.449219 292.511719 898.648438 291.722656 898.886719 290.941406 C 899.125 290.160156 899.398438 289.390625 899.710938 288.636719 C 900.023438 287.882812 900.371094 287.144531 900.757812 286.421875 C 901.140625 285.703125 901.5625 285.003906 902.015625 284.324219 C 902.46875 283.644531 902.953125 282.988281 903.472656 282.359375 C 903.992188 281.726562 904.539062 281.121094 905.117188 280.546875 C 905.695312 279.96875 906.296875 279.417969 906.929688 278.902344 C 907.5625 278.382812 908.214844 277.898438 908.894531 277.445312 C 909.574219 276.988281 910.273438 276.570312 910.996094 276.183594 C 911.714844 275.800781 912.453125 275.453125 913.207031 275.140625 C 913.960938 274.828125 914.730469 274.550781 915.511719 274.316406 C 916.292969 274.078125 917.085938 273.878906 917.886719 273.71875 C 918.6875 273.558594 919.492188 273.441406 920.304688 273.359375 C 921.121094 273.28125 921.933594 273.242188 922.75 273.242188 C 923.566406 273.242188 924.382812 273.28125 925.195312 273.359375 C 926.007812 273.441406 926.816406 273.558594 927.617188 273.71875 C 928.417969 273.878906 929.207031 274.078125 929.992188 274.316406 C 930.773438 274.550781 931.539062 274.828125 932.292969 275.140625 C 933.050781 275.453125 933.785156 275.800781 934.507812 276.183594 C 935.226562 276.570312 935.925781 276.988281 936.605469 277.445312 C 937.285156 277.898438 937.941406 278.382812 938.570312 278.902344 C 939.203125 279.417969 939.808594 279.96875 940.386719 280.546875 C 940.960938 281.121094 941.511719 281.726562 942.027344 282.359375 C 942.546875 282.988281 943.03125 283.644531 943.488281 284.324219 C 943.941406 285.003906 944.359375 285.703125 944.746094 286.421875 C 945.128906 287.144531 945.480469 287.882812 945.792969 288.636719 C 946.105469 289.390625 946.378906 290.160156 946.617188 290.941406 C 946.851562 291.722656 947.050781 292.511719 947.210938 293.3125 C 947.371094 294.113281 947.488281 294.921875 947.570312 295.734375 C 947.648438 296.546875 947.691406 297.363281 947.691406 298.179688 Z M 947.691406 298.179688 " fill-opacity="1" fill-rule="nonzero"/><path fill="#060644" d="M 922.746094 325.609375 C 907.621094 325.609375 895.316406 313.304688 895.316406 298.179688 C 895.316406 283.050781 907.621094 270.742188 922.746094 270.742188 C 937.875 270.742188 950.183594 283.050781 950.183594 298.179688 C 950.183594 313.304688 937.875 325.609375 922.746094 325.609375 Z M 922.746094 275.730469 C 910.375 275.730469 900.304688 285.800781 900.304688 298.179688 C 900.304688 310.554688 910.375 320.625 922.746094 320.625 C 935.121094 320.625 945.195312 310.554688 945.195312 298.179688 C 945.195312 285.800781 935.121094 275.730469 922.746094 275.730469 Z M 922.746094 275.730469 " fill-opacity="1" fill-rule="nonzero"/><path fill="#ff2273" d="M 852.503906 285.292969 C 851.996094 285.292969 851.484375 285.140625 851.039062 284.820312 L 831.113281 270.347656 C 830.246094 269.71875 829.882812 268.605469 830.203125 267.582031 L 837.09375 245.648438 C 837.503906 244.332031 838.902344 243.601562 840.21875 244.015625 C 841.535156 244.429688 842.261719 245.828125 841.851562 247.144531 L 835.503906 267.367188 L 853.972656 280.78125 C 855.089844 281.59375 855.332031 283.152344 854.523438 284.265625 C 854.039062 284.9375 853.273438 285.292969 852.503906 285.292969 Z M 852.503906 285.292969 " fill-opacity="1" fill-rule="nonzero"/><path fill="#ff2273" d="M 852.503906 285.292969 C 852.300781 285.292969 852.085938 285.265625 851.878906 285.210938 C 850.542969 284.863281 849.746094 283.503906 850.097656 282.171875 L 855.855469 260.074219 L 838.109375 248.480469 C 836.957031 247.730469 836.636719 246.183594 837.382812 245.03125 C 838.140625 243.871094 839.699219 243.558594 840.835938 244.308594 L 860.082031 256.878906 C 860.976562 257.464844 861.40625 258.558594 861.132812 259.59375 L 854.921875 283.425781 C 854.628906 284.550781 853.617188 285.292969 852.503906 285.292969 Z M 852.503906 285.292969 " fill-opacity="1" fill-rule="nonzero"/><path fill="#060644" d="M 475.996094 391.316406 C 473.871094 396.378906 467.878906 401.953125 462.679688 403.710938 L 445.871094 409.398438 C 440.675781 411.15625 434.96875 408.347656 433.199219 403.15625 L 424.660156 378.191406 C 422.882812 373 425.6875 367.3125 430.882812 365.554688 L 447.683594 359.875 C 452.882812 358.117188 461.035156 358.894531 465.804688 361.605469 L 475.4375 367.078125 C 480.203125 369.789062 482.371094 376.144531 480.246094 381.203125 Z M 475.996094 391.316406 " fill-opacity="1" fill-rule="nonzero"/><path fill="#060644" d="M 518.53125 388.921875 C 523.589844 391.046875 529.167969 397.039062 530.925781 402.234375 L 536.617188 419.039062 C 538.375 424.238281 535.566406 429.941406 530.371094 431.71875 L 505.410156 440.253906 C 500.21875 442.03125 494.53125 439.230469 492.777344 434.03125 L 487.09375 417.230469 C 485.335938 412.03125 486.113281 403.875 488.824219 399.105469 L 494.296875 389.476562 C 497.007812 384.703125 503.363281 382.539062 508.421875 384.664062 Z M 518.53125 388.921875 " fill-opacity="1" fill-rule="nonzero"/><path fill="#060644" d="M 709.011719 377.472656 C 709.839844 380.085938 708.394531 382.945312 705.789062 383.820312 L 675.714844 393.960938 C 673.113281 394.839844 670.3125 393.414062 669.488281 390.796875 L 665.523438 378.210938 C 664.695312 375.597656 666.148438 372.738281 668.75 371.863281 L 698.8125 361.730469 C 701.414062 360.851562 704.21875 362.277344 705.042969 364.894531 Z M 709.011719 377.472656 " fill-opacity="1" fill-rule="nonzero"/><path fill="#060644" d="M 739.949219 372.789062 C 737.6875 374.335938 735.152344 373.460938 734.332031 370.84375 L 730.363281 358.261719 C 729.542969 355.644531 731.105469 353.375 733.839844 353.214844 L 766.835938 351.324219 C 769.570312 351.164062 769.957031 352.300781 767.691406 353.847656 Z M 739.949219 372.789062 " fill-opacity="1" fill-rule="nonzero"/><path fill="#060644" d="M 516.140625 346.378906 C 518.265625 341.320312 524.257812 335.746094 529.453125 333.984375 L 546.261719 328.296875 C 551.460938 326.539062 557.164062 329.347656 558.933594 334.539062 L 567.476562 359.503906 C 569.25 364.695312 566.449219 370.382812 561.253906 372.140625 L 544.457031 377.820312 C 539.257812 379.578125 531.101562 378.800781 526.332031 376.089844 L 516.695312 370.621094 C 511.925781 367.910156 509.757812 361.554688 511.886719 356.496094 Z M 516.140625 346.378906 " fill-opacity="1" fill-rule="nonzero"/><path fill="#060644" d="M 473.601562 348.777344 C 468.542969 346.652344 462.964844 340.660156 461.207031 335.460938 L 455.519531 318.652344 C 453.757812 313.457031 456.566406 307.75 461.765625 305.976562 L 486.730469 297.441406 C 491.921875 295.664062 497.609375 298.46875 499.363281 303.664062 L 505.050781 320.460938 C 506.804688 325.65625 506.027344 333.8125 503.316406 338.582031 L 497.84375 348.21875 C 495.136719 352.988281 488.777344 355.152344 483.71875 353.027344 Z M 473.601562 348.777344 " fill-opacity="1" fill-rule="nonzero"/><path fill="#00bfc3" d="M 677.328125 404.699219 C 676.273438 404.699219 675.292969 404.023438 674.957031 402.96875 C 674.535156 401.65625 675.253906 400.25 676.570312 399.832031 L 710.652344 388.898438 C 711.972656 388.488281 713.367188 389.203125 713.789062 390.511719 C 714.210938 391.824219 713.488281 393.226562 712.175781 393.648438 L 678.09375 404.582031 C 677.839844 404.660156 677.582031 404.699219 677.328125 404.699219 Z M 677.328125 404.699219 " fill-opacity="1" fill-rule="nonzero"/><path fill="#00bfc3" d="M 742.171875 384.75 C 741.105469 384.75 740.117188 384.0625 739.785156 382.988281 C 739.386719 381.667969 740.128906 380.273438 741.441406 379.871094 L 774.699219 369.695312 C 776.027344 369.289062 777.410156 370.035156 777.8125 371.351562 C 778.214844 372.667969 777.472656 374.0625 776.160156 374.464844 L 742.902344 384.640625 C 742.660156 384.714844 742.410156 384.75 742.171875 384.75 Z M 742.171875 384.75 " fill-opacity="1" fill-rule="nonzero"/><path fill="#00bfc3" d="M 891.34375 212.351562 C 891.035156 212.351562 890.710938 212.292969 890.40625 212.167969 C 880.023438 207.945312 869.644531 203.210938 866.746094 195.945312 C 865.625 193.152344 865.730469 190.257812 867.042969 187.347656 C 868.457031 184.234375 870.707031 183.074219 872.355469 182.648438 C 877.867188 181.230469 884.253906 185.851562 884.964844 186.375 C 886.066406 187.199219 886.292969 188.757812 885.476562 189.863281 C 884.65625 190.964844 883.101562 191.195312 881.988281 190.378906 C 880.667969 189.40625 876.320312 186.75 873.597656 187.480469 C 873.042969 187.625 872.234375 187.980469 871.585938 189.402344 C 870.832031 191.078125 870.761719 192.566406 871.375 194.097656 C 873.726562 199.996094 885.339844 204.722656 892.277344 207.546875 C 893.550781 208.066406 894.167969 209.519531 893.644531 210.796875 C 893.253906 211.761719 892.328125 212.351562 891.34375 212.351562 Z M 891.34375 212.351562 " fill-opacity="1" fill-rule="nonzero"/><path fill="#00bfc3" d="M 891.34375 212.351562 C 890.953125 212.351562 890.554688 212.261719 890.191406 212.066406 C 888.96875 211.425781 888.496094 209.921875 889.132812 208.699219 C 892.605469 202.0625 898.429688 190.949219 896.414062 184.925781 C 895.894531 183.363281 894.875 182.269531 893.21875 181.484375 C 891.796875 180.804688 890.953125 181.0625 890.433594 181.3125 C 888.089844 182.441406 886.371094 186.941406 885.910156 188.941406 C 885.597656 190.277344 884.273438 191.132812 882.914062 190.804688 C 881.574219 190.492188 880.734375 189.152344 881.046875 187.8125 C 881.25 186.945312 883.160156 179.285156 888.269531 176.820312 C 889.800781 176.082031 892.269531 175.507812 895.367188 176.976562 C 898.25 178.347656 900.195312 180.492188 901.148438 183.347656 C 903.625 190.761719 898.757812 201.078125 893.558594 211.015625 C 893.109375 211.863281 892.238281 212.351562 891.34375 212.351562 Z M 891.34375 212.351562 " fill-opacity="1" fill-rule="nonzero"/><path fill="#00bfc3" d="M 919.914062 313.757812 C 919.394531 313.757812 918.878906 313.597656 918.453125 313.285156 L 906.359375 304.535156 C 905.550781 303.953125 905.167969 302.941406 905.386719 301.96875 L 908.652344 287.40625 C 908.835938 286.585938 909.421875 285.914062 910.207031 285.617188 L 925.5625 279.804688 C 926.351562 279.515625 927.222656 279.625 927.90625 280.117188 L 940.003906 288.867188 C 940.816406 289.453125 941.195312 290.464844 940.980469 291.4375 L 937.707031 306 C 937.527344 306.816406 936.9375 307.488281 936.15625 307.785156 L 920.796875 313.597656 C 920.507812 313.707031 920.207031 313.757812 919.914062 313.757812 Z M 910.609375 301.457031 L 920.292969 308.457031 L 933.136719 303.597656 L 935.753906 291.945312 L 926.070312 284.949219 L 913.222656 289.804688 Z M 910.609375 301.457031 " fill-opacity="1" fill-rule="nonzero"/><path fill="#ff2273" d="M 637.730469 299.140625 C 634.519531 299.140625 631.546875 297.054688 630.570312 293.820312 C 629.375 289.867188 631.613281 285.691406 635.566406 284.492188 L 744.746094 251.503906 C 748.667969 250.3125 752.878906 252.539062 754.070312 256.5 C 755.265625 260.457031 753.023438 264.632812 749.070312 265.828125 L 639.898438 298.820312 C 639.175781 299.035156 638.445312 299.140625 637.730469 299.140625 Z M 637.730469 299.140625 " fill-opacity="1" fill-rule="nonzero"/><path fill="#00bfc3" d="M 659.667969 318.960938 C 656.460938 318.960938 653.488281 316.878906 652.511719 313.648438 C 651.3125 309.695312 653.539062 305.515625 657.492188 304.316406 L 732.609375 281.511719 C 736.527344 280.308594 740.742188 282.539062 741.941406 286.492188 C 743.140625 290.449219 740.910156 294.628906 736.957031 295.828125 L 661.84375 318.632812 C 661.121094 318.855469 660.386719 318.960938 659.667969 318.960938 Z M 659.667969 318.960938 " fill-opacity="1" fill-rule="nonzero"/><path fill="#ffffff" d="M 453.601562 713.222656 C 443.78125 713.101562 431.796875 705.496094 426.132812 701.074219 C 416.789062 693.816406 409.921875 681.972656 406.707031 670.722656 C 404.144531 661.785156 404.949219 635.40625 421.757812 641.097656 C 430.828125 644.167969 432.554688 660.417969 437.054688 667.65625 C 443.308594 677.703125 452.679688 685.480469 462.003906 692.507812 C 467.097656 696.347656 468.019531 704.507812 463.707031 709.214844 C 461.019531 712.152344 457.484375 713.261719 453.601562 713.222656 Z M 453.601562 713.222656 " fill-opacity="1" fill-rule="nonzero"/><path fill="#060644" d="M 453.796875 713.921875 L 453.574219 713.921875 C 441.25 713.921875 427.273438 704.234375 424.59375 702.144531 C 415.546875 695.109375 407.957031 683.730469 404.304688 670.957031 C 402.625 665.089844 401.910156 650.382812 407.886719 642.453125 C 411.316406 637.902344 416.496094 636.585938 422.558594 638.625 C 429.773438 641.0625 432.804688 649.78125 435.480469 657.417969 C 436.683594 660.867188 437.824219 664.144531 439.171875 666.316406 C 445.1875 675.972656 454.421875 683.65625 463.503906 690.503906 C 466.550781 692.800781 468.515625 696.4375 468.882812 700.472656 C 469.242188 704.386719 468.023438 707.292969 465.542969 710 C 462.621094 713.199219 458.667969 713.921875 453.796875 713.921875 Z M 417.355469 642.796875 C 415.128906 642.796875 413.332031 643.738281 411.878906 645.679688 C 407.628906 651.3125 407.398438 664.070312 409.109375 670.035156 C 412.480469 681.828125 419.417969 692.738281 427.667969 699.148438 C 434.457031 704.445312 446.238281 710.808594 454.546875 710.808594 L 455.621094 710.808594 C 455.621094 710.808594 460.8125 709.730469 462.78125 707.574219 C 464.316406 705.898438 464.605469 703.472656 464.375 700.945312 C 464.132812 698.320312 462.660156 695.964844 460.734375 694.511719 C 451.265625 687.375 441.5 679.335938 435.050781 668.980469 C 433.414062 666.347656 432.128906 662.839844 430.828125 659.121094 C 428.53125 652.5625 425.902344 645.125 420.992188 643.464844 C 419.683594 643.023438 418.445312 642.796875 417.355469 642.796875 Z M 417.355469 642.796875 " fill-opacity="1" fill-rule="nonzero"/><path fill="#ffffff" d="M 1077.105469 440.90625 C 1083.207031 448.644531 1084.847656 462.757812 1084.976562 469.957031 C 1085.21875 481.792969 1080.324219 494.582031 1073.589844 504.144531 C 1068.246094 511.746094 1047.1875 527.671875 1041.015625 510.988281 C 1037.683594 501.988281 1049.253906 490.449219 1052.054688 482.398438 C 1055.925781 471.21875 1056.078125 459.03125 1055.667969 447.351562 C 1055.441406 440.964844 1061.214844 435.125 1067.613281 435.535156 C 1071.585938 435.785156 1074.6875 437.851562 1077.105469 440.90625 Z M 1077.105469 440.90625 " fill-opacity="1" fill-rule="nonzero"/><path fill="#060644" d="M 1050.515625 520.816406 C 1046.625 520.816406 1041.417969 519.261719 1038.675781 511.847656 C 1036.027344 504.6875 1040.855469 496.898438 1045.121094 490.019531 C 1047.046875 486.917969 1048.859375 483.980469 1049.695312 481.574219 C 1053.421875 470.800781 1053.570312 458.796875 1053.171875 447.433594 C 1053.042969 443.792969 1054.503906 440.113281 1057.183594 437.332031 C 1060.027344 434.386719 1063.941406 432.78125 1067.769531 433.042969 C 1072.15625 433.320312 1075.964844 435.441406 1079.0625 439.355469 C 1086.726562 449.074219 1087.410156 466.511719 1087.46875 469.90625 C 1087.703125 481.375 1083.28125 494.707031 1075.632812 505.578125 C 1072.011719 510.726562 1060.566406 520.816406 1050.515625 520.816406 Z M 1067.390625 440.210938 C 1064.703125 440.210938 1062.476562 440.132812 1060.773438 441.890625 C 1059.03125 443.699219 1058.078125 445.507812 1058.15625 447.808594 C 1058.574219 459.660156 1058.402344 471.949219 1054.40625 483.492188 C 1053.386719 486.421875 1051.429688 489.4375 1049.355469 492.78125 C 1045.695312 498.691406 1041.546875 505.316406 1043.351562 510.183594 C 1044.792969 514.082031 1047.066406 515.863281 1050.511719 515.863281 C 1057.609375 515.863281 1067.871094 507.945312 1071.542969 502.726562 C 1078.605469 492.699219 1082.691406 480.460938 1082.472656 470.011719 C 1082.320312 461.394531 1080.308594 450.101562 1075.140625 443.542969 C 1072.929688 440.753906 1070.410156 440.207031 1067.449219 440.207031 C 1067.429688 440.210938 1067.414062 440.210938 1067.390625 440.210938 Z M 1067.390625 440.210938 " fill-opacity="1" fill-rule="nonzero"/></svg>